# xmcd CD database file
#
# Track frame offsets:
#	150
#	11367
#	17111
#	25802
#	40844
#	57436
#	77944
#	93848
#	109430
#	119244
#	134905
#	151333
#	167920
#	187136
#	203486
#	227492
#	246090
#	259387
#	270369
#	287121
#
# Disc length: 4065 seconds
#
# Revision: 3
# Processed by: cddbd v1.5.2PL0 Copyright (c) Steve Scherf et al.
# Submitted via: CD2WAV32(JP) R3.22
#
DISCID=200fdf14
DTITLE=LEAF - To Heart 2  Original Sound Track DISC2
DYEAR=2004
DGENRE=Game
TTITLE0=なんて愉快！
TTITLE1=DOTABATA
TTITLE2=カッコ悪ぅ
TTITLE3=暮れゆく陽
TTITLE4=輝き
TTITLE5=ストレイン
TTITLE6=止まない雨
TTITLE7=Technical Power
TTITLE8=ふたりの午後
TTITLE9=風がくれたおやすみ
TTITLE10=Feel My Heart, Feel Your Heart
TTITLE11=フレンチキス
TTITLE12=エターナルラブ
TTITLE13=それぞれの未来へ
TTITLE14=ありがとう ／ AKKO
TTITLE15=Heart To Heart ／ 中山愛梨沙
TTITLE16=トースト咥えたあいつにおはよう <アレンジバージョン>
TTITLE17=真夜中の学校で <アレンジバージョン>
TTITLE18=小さな勇気 ～がんばれ女の子！～ <アレンジバージョン>
TTITLE19=止まない雨 <アレンジバージョン>
EXTD=
EXTT0=
EXTT1=
EXTT2=
EXTT3=
EXTT4=
EXTT5=
EXTT6=
EXTT7=
EXTT8=
EXTT9=
EXTT10=
EXTT11=
EXTT12=
EXTT13=
EXTT14=
EXTT15=
EXTT16=
EXTT17=
EXTT18=
EXTT19=
PLAYORDER=
